<!--?xml version="1.0" standalone="no"?-->
              <svg id="sw-js-blob-svg" viewBox="0 0 100 100" xmlns="http://www.w3.org/2000/svg" version="1.1">
                    <defs> 
                        <linearGradient id="sw-gradient" x1="0" x2="1" y1="1" y2="0">
                            <stop id="stop1" stop-color="rgba(221.955, 228.803, 255, 0.42)" offset="0%"></stop>
                            <stop id="stop2" stop-color="rgba(0, 61.482, 255, 0.55)" offset="100%"></stop>
                        </linearGradient>
                    </defs>
                <path fill="url(#sw-gradient)" d="M21.6,-30.7C28.2,-29.4,33.7,-23.7,34.9,-17.1C36,-10.5,32.7,-3.2,31.1,4.1C29.5,11.4,29.6,18.6,26.5,24.1C23.5,29.7,17.3,33.6,10.5,35.3C3.8,37,-3.3,36.4,-9.9,34.2C-16.4,32,-22.2,28.1,-26.4,23C-30.6,17.9,-33.1,11.5,-35.7,4.2C-38.2,-3.2,-40.7,-11.5,-38.4,-17.9C-36,-24.3,-28.7,-28.8,-21.5,-29.8C-14.3,-30.7,-7.1,-28.2,0.2,-28.5C7.5,-28.8,15.1,-32,21.6,-30.7Z" width="100%" height="100%" transform="translate(50 50)" stroke-width="0" style="transition: all 0.3s ease 0s;" stroke="url(#sw-gradient)"></path>
              </svg>